#!OML:ASF F:\VICON\USERDATA\INSTALL\rory7\rory7.ASF
:FULLY-SPECIFIED
:DEGREES
1034
root 0.21527 18.9029 3.52573 -2.54259 -9.1849 0.661799
lowerback 9.38848 0.796109 -2.6195
upperback 1.43822 0.748036 -0.978202
thorax -3.78978 0.397825 0.365501
lowerneck -4.61309 -7.16616 -6.85899
upperneck 15.5211 -10.2905 7.62799
head 6.20623 -4.89466 2.79244
rclavicle -1.22004e-014 6.36111e-015
rhumerus 7.82426 23.0589 -56.5661
rradius 138.276
rwrist -13.859
rhand -37.6674 -10.2612
rfingers 7.12502
rthumb -10.7185 -39.9677
lclavicle -1.22004e-014 6.36111e-015
lhumerus -35.1693 17.2155 69.5625
lradius 23.4793
lwrist -7.97747
lhand -26.7731 20.9122
lfingers 7.12502
lthumb -0.200958 50.8918
rfemur 0 0 0
rtibia 0
rfoot 0 0
rtoes 0
lfemur 4.60373 -8.99736 -19.9391
ltibia 9.597
lfoot -12.7089 24.4569
ltoes -1.56173
1035
root 0.217303 18.9034 3.52763 -2.49553 -9.25331 0.655318
lowerback 9.30669 0.80506 -2.57262
upperback 1.43853 0.767468 -0.982104
thorax -3.74379 0.406423 0.333756
lowerneck -4.69406 -7.19854 -6.81735
upperneck 15.9033 -10.346 7.52355
head 6.33778 -4.91919 2.74184
rclavicle 1.6847e-014 1.66979e-014
rhumerus 7.33924 23.3101 -57.0163
rradius 138.431
rwrist -14.4949
rhand -37.5793 -10.178
rfingers 7.12502
rthumb -10.6335 -39.8889
lclavicle 1.6847e-014 1.66979e-014
lhumerus -35.1793 17.187 69.5278
lradius 23.4806
lwrist -8.07092
lhand -26.8179 21.5179
lfingers 7.12502
lthumb -0.244184 51.4975
rfemur 0 0 0
rtibia 0
rfoot 0 0
rtoes 0
lfemur 4.5701 -8.92814 -19.937
ltibia 9.59796
lfoot -12.7134 24.4676
ltoes -1.71455
1036
root 0.218199 18.9041 3.52656 -2.47241 -9.27005 0.702559
lowerback 9.28776 0.812966 -2.60049
upperback 1.44568 0.775538 -0.993393
thorax -3.72624 0.410499 0.337014
lowerneck -4.79187 -7.21091 -6.74388
upperneck 16.2005 -10.3735 7.44006
head 6.44284 -4.9275 2.69526
rclavicle 2.67365e-014 -1.19271e-015
rhumerus 6.84379 23.5243 -57.423
rradius 138.603
rwrist -15.0195
rhand -37.4835 -10.2253
rfingers 7.12502
rthumb -10.5411 -39.9409
lclavicle 2.67365e-014 -1.19271e-015
lhumerus -35.1637 17.128 69.5529
lradius 23.4727
lwrist -7.94898
lhand -27.0691 21.2595
lfingers 7.12502
lthumb -0.486788 51.2387
rfemur 0 0 0
rtibia 0
rfoot 0 0
rtoes 0
lfemur 4.56439 -8.90887 -19.9848
ltibia 9.54169
lfoot -12.6617 24.4705
ltoes -1.7713
1037
root 0.218405 18.9046 3.52397 -2.4738 -9.27193 0.749281
lowerback 9.31345 0.807046 -2.64857
upperback 1.42703 0.761624 -0.990761
thorax -3.76023 0.404692 0.367957
lowerneck -4.80534 -7.2248 -6.71424
upperneck 16.4377 -10.4006 7.36898
head 6.51737 -4.94046 2.6632
rclavicle 9.49197e-015 7.95139e-015
rhumerus 6.30083 23.8003 -57.7907
rradius 138.775
rwrist -15.4498
rhand -37.3891 -10.6334
rfingers 7.12502
rthumb -10.4501 -40.3536
lclavicle 9.49197e-015 7.95139e-015
lhumerus -35.2009 17.2499 69.4685
lradius 23.3863
lwrist -7.98307
lhand -27.181 20.8596
lfingers 7.12502
lthumb -0.594861 50.8385
rfemur 0 0 0
rtibia 0
rfoot 0 0
rtoes 0
lfemur 4.60173 -8.90539 -20.0247
ltibia 9.42968
lfoot -12.5487 24.4741
ltoes -1.85693
1038
root 0.217914 18.9051 3.52158 -2.48803 -9.31056 0.824993
lowerback 9.35246 0.814963 -2.726
upperback 1.39979 0.761789 -1.00191
thorax -3.81114 0.406411 0.399083
lowerneck -4.87145 -7.24246 -6.73775
upperneck 16.7302 -10.4396 7.35979
head 6.62586 -4.95583 2.65565
rclavicle -9.41742e-015 1.59028e-015
rhumerus 5.73161 24.0591 -58.2032
rradius 138.907
rwrist -15.8985
rhand -37.3912 -11.0928
rfingers 7.12502
rthumb -10.452 -40.8129
lclavicle -9.41742e-015 1.59028e-015
lhumerus -35.22 17.3782 69.3433
lradius 23.2847
lwrist -8.09948
lhand -26.9347 21.1047
lfingers 7.12502
lthumb -0.356995 51.0842
rfemur 0 0 0
rtibia 0
rfoot 0 0
rtoes 0
lfemur 4.64704 -8.86288 -20.1071
ltibia 9.34064
lfoot -12.5216 24.4816
ltoes -1.91794
1039
root 0.216265 18.9061 3.51794 -2.48056 -9.32965 0.842882
lowerback 9.42156 0.820007 -2.75167
upperback 1.35724 0.762109 -1.00599
thorax -3.89418 0.408033 0.407913
lowerneck -4.96596 -7.25882 -6.75025
upperneck 16.9911 -10.4725 7.34175
head 6.72805 -4.96793 2.64323
rclavicle 2.21645e-014 -1.66979e-014
rhumerus 5.10216 24.231 -58.6919
rradius 139.047
rwrist -16.6674
rhand -37.3242 -11.4106
rfingers 7.12502
rthumb -10.3874 -41.1341
lclavicle 2.21645e-014 -1.66979e-014
lhumerus -35.2529 17.4176 69.2539
lradius 23.2706
lwrist -8.09357
lhand -26.6675 21.3374
lfingers 7.12502
lthumb -0.0989533 51.3171
rfemur 0 0 0
rtibia 0
rfoot 0 0
rtoes 0
lfemur 4.65764 -8.84321 -20.1202
ltibia 9.28752
lfoot -12.5094 24.4773
ltoes -1.96711
